<svg width="204" height="185" viewBox="0 0 204 185" fill="none" xmlns="http://www.w3.org/2000/svg">
<path fill-rule="evenodd" clip-rule="evenodd" d="M173.865 1.12823C173.171 0.675858 172.242 0.871744 171.79 1.56575C171.337 2.25976 171.533 3.18909 172.227 3.64146C182.43 10.2919 192.276 18.0768 198.52 27.4139C200.702 30.6768 200.964 33.7458 200.025 36.5972C199.06 39.5272 196.775 42.3694 193.604 44.936C188.221 49.2916 180.638 52.5663 174.023 53.9828L174.02 53.9685C172.616 47.8491 170.032 41.5037 164.751 38.6454C163.072 37.7364 161.377 37.646 159.829 38.1206C158.326 38.5814 157.036 39.548 156.008 40.6426C154.974 41.7437 154.139 43.0437 153.558 44.2955C152.99 45.521 152.606 46.829 152.606 47.9438C152.606 50.1785 153.296 52.0361 154.517 53.5056C155.718 54.9517 157.361 55.9357 159.149 56.5884C162.697 57.8836 167.12 57.9872 170.918 57.5416C171.164 57.5127 171.413 57.4808 171.663 57.4461C172.352 61.3283 172.669 65.1608 172.923 68.226L172.923 68.2265L172.923 68.2292C172.998 69.1391 173.068 69.9814 173.14 70.7372C174.572 85.7437 171.607 99.1557 164.561 110.908C157.507 122.676 146.311 132.864 131.16 141.312C104.414 156.225 70.9115 163.655 39.418 168.553C28.1264 170.309 17.01 171.357 5.63458 171.517L15.3168 163.033C15.9399 162.488 16.0025 161.54 15.4566 160.917C14.9106 160.294 13.963 160.231 13.3399 160.777L0.730928 171.824C0.392357 172.121 0.204903 172.554 0.220301 173.004C0.235699 173.454 0.45232 173.873 0.810382 174.146L13.4193 183.752C14.0783 184.254 15.0195 184.127 15.5215 183.468C16.0236 182.809 15.8964 181.868 15.2374 181.366L6.23579 174.508C17.5749 174.32 28.6528 173.263 39.879 171.517C71.4351 166.61 105.385 159.119 132.621 143.933C148.111 135.296 159.748 124.774 167.135 112.451C174.531 100.112 177.615 86.0527 176.126 70.4521C176.059 69.7505 175.993 68.9491 175.921 68.0691C175.669 65.0084 175.338 60.9968 174.617 56.9234C181.674 55.4174 189.707 51.9482 195.491 47.2681C198.907 44.5038 201.662 41.2176 202.874 37.5356C204.112 33.775 203.69 29.7484 201.014 25.7462C194.426 15.8948 184.165 7.84178 173.865 1.12823ZM163.323 41.2838C167.335 43.4551 169.678 48.5381 171.064 54.5C170.897 54.5221 170.732 54.5428 170.568 54.562C167.003 54.9803 163.108 54.84 160.178 53.7704C158.727 53.2407 157.592 52.512 156.824 51.5884C156.076 50.6883 155.606 49.5193 155.606 47.9438C155.606 47.4342 155.807 46.5771 156.28 45.5576C156.741 44.5643 157.403 43.5393 158.195 42.6963C158.993 41.8468 159.857 41.25 160.708 40.9889C161.515 40.7416 162.375 40.7709 163.323 41.2838Z" fill="#404040"/>
</svg>
