<svg width="72" height="72" viewBox="0 0 72 72" fill="none" xmlns="http://www.w3.org/2000/svg">
<g filter="url(#filter0_d_37_68)">
<circle cx="37" cy="37" r="32" fill="#FFE498"/>
</g>
<path fill-rule="evenodd" clip-rule="evenodd" d="M44.7825 46.0375C45.7175 48.0725 46.565 48.25 47 48.25C47.435 48.25 48.2825 48.0725 49.2175 46.0375C50.16 43.9975 50.75 40.845 50.75 37C50.75 33.155 50.16 30.0025 49.2175 27.9625C48.2825 25.9275 47.435 25.75 47 25.75C46.565 25.75 45.7175 25.9275 44.7825 27.9625C43.84 30 43.25 33.155 43.25 37C43.25 40.845 43.84 43.9975 44.7825 46.0375ZM39.5 37C39.5 40.6725 39.9925 44.0375 40.975 46.6425L24.255 40.275C23.5914 40.022 23.0203 39.5733 22.6174 38.9885C22.2145 38.4036 21.9987 37.7102 21.9987 37C21.9987 36.2898 22.2145 35.5964 22.6174 35.0115C23.0203 34.4267 23.5914 33.978 24.255 33.725L40.97 27.355C39.99 29.9625 39.5 33.33 39.5 37ZM47 52C52 52 54.5 45.285 54.5 37C54.5 28.715 52 22 47 22C45.3475 22 43.7075 22.3 42.165 22.89L22.9225 30.22C21.5482 30.7434 20.3654 31.672 19.5309 32.8828C18.6963 34.0936 18.2495 35.5294 18.2495 37C18.2495 38.4706 18.6963 39.9064 19.5309 41.1172C20.3654 42.328 21.5482 43.2566 22.9225 43.78L24.99 44.5675C24.6686 45.3399 24.5055 46.169 24.5105 47.0056C24.5155 47.8422 24.6884 48.6693 25.0189 49.4378C25.3494 50.2064 25.8309 50.9007 26.4348 51.4798C27.0387 52.0588 27.7526 52.5107 28.5344 52.8086C29.3161 53.1066 30.1498 53.2446 30.9858 53.2144C31.8219 53.1842 32.6434 52.9865 33.4016 52.633C34.1599 52.2794 34.8394 51.7772 35.4 51.1562C35.9605 50.5351 36.3907 49.8079 36.665 49.0175L42.165 51.11C43.7091 51.6983 45.3476 51.9999 47 52ZM33.1575 47.6775L28.5 45.9075C28.3496 46.2193 28.2656 46.559 28.2534 46.905C28.2411 47.251 28.3009 47.5957 28.4288 47.9174C28.5568 48.2391 28.7502 48.5307 28.9967 48.7738C29.2433 49.0168 29.5376 49.206 29.8611 49.3293C30.1846 49.4527 30.5302 49.5075 30.8759 49.4903C31.2217 49.4731 31.5601 49.3843 31.8698 49.2295C32.1795 49.0747 32.4536 48.8572 32.6748 48.5909C32.896 48.3246 33.0595 48.0153 33.155 47.6825L33.1575 47.6775Z" fill="black"/>
<defs>
<filter id="filter0_d_37_68" x="0" y="0" width="72" height="72" filterUnits="userSpaceOnUse" color-interpolation-filters="sRGB">
<feFlood flood-opacity="0" result="BackgroundImageFix"/>
<feColorMatrix in="SourceAlpha" type="matrix" values="0 0 0 0 0 0 0 0 0 0 0 0 0 0 0 0 0 0 127 0" result="hardAlpha"/>
<feOffset dx="-1" dy="-1"/>
<feGaussianBlur stdDeviation="2"/>
<feComposite in2="hardAlpha" operator="out"/>
<feColorMatrix type="matrix" values="0 0 0 0 0 0 0 0 0 0 0 0 0 0 0 0 0 0 0.25 0"/>
<feBlend mode="normal" in2="BackgroundImageFix" result="effect1_dropShadow_37_68"/>
<feBlend mode="normal" in="SourceGraphic" in2="effect1_dropShadow_37_68" result="shape"/>
</filter>
</defs>
</svg>
