<svg width="72" height="72" viewBox="0 0 72 72" fill="none" xmlns="http://www.w3.org/2000/svg">
<g filter="url(#filter0_d_37_29)">
<circle cx="37" cy="37" r="32" fill="#FFE498"/>
</g>
<path d="M48.0139 23.5645L22.2168 27.4456C21.1999 27.6005 20.2555 28.0652 19.5125 28.7765C18.7694 29.4877 18.2637 30.4108 18.0644 31.4199C17.8651 32.429 17.9819 33.475 18.3989 34.4153C18.8158 35.3556 19.5126 36.1445 20.3943 36.6743L28.815 41.6936C29.0137 41.8184 29.1856 41.9815 29.3206 42.1734C29.4556 42.3654 29.551 42.5823 29.6012 42.8115L31.4785 52.4333C31.6392 53.2508 32.0018 54.0152 32.5331 54.657C33.0644 55.2988 33.7477 55.7976 34.5209 56.1082C35.294 56.4187 36.1325 56.5311 36.9602 56.4352C37.7878 56.3393 38.5784 56.038 39.26 55.5589C39.8939 55.1035 40.4178 54.5122 40.7936 53.8282L53.1669 30.8618C53.6044 30.0451 53.8063 29.1229 53.7502 28.1981C53.694 27.2733 53.3821 26.3823 52.849 25.6245C52.316 24.8667 51.5829 24.2719 50.7316 23.9064C49.8802 23.541 48.944 23.4193 48.0275 23.5549L48.0139 23.5645ZM50.2237 29.2846L37.8503 52.251C37.6843 52.5476 37.4317 52.7863 37.1261 52.9353C36.8206 53.0842 36.4769 53.1361 36.141 53.0841C35.8051 53.0322 35.4931 52.8787 35.2469 52.6444C35.0007 52.4101 34.832 52.1061 34.7635 51.7732L32.8726 42.161C32.846 42.0336 32.812 41.9078 32.7707 41.7844L42.1634 35.178C42.525 34.9237 42.7707 34.5362 42.8465 34.1007C42.9224 33.6652 42.8221 33.2175 42.5678 32.8559C42.3135 32.4944 41.926 32.2486 41.4905 32.1728C41.055 32.097 40.6073 32.1972 40.2457 32.4515L30.8531 39.0579C30.7508 38.9773 30.644 38.9028 30.533 38.8347L22.1259 33.8058C21.8358 33.6288 21.6067 33.3672 21.4695 33.0563C21.3322 32.7454 21.2932 32.3999 21.3578 32.0662C21.4225 31.7325 21.5876 31.4266 21.831 31.1894C22.0744 30.9522 22.3846 30.7951 22.7198 30.7392L48.517 26.858C48.8207 26.8154 49.1304 26.8574 49.4118 26.9794C49.6932 27.1014 49.9355 27.2988 50.112 27.5496C50.2884 27.8005 50.3923 28.0953 50.412 28.4014C50.4317 28.7075 50.3665 29.0131 50.2237 29.2846Z" fill="black"/>
<defs>
<filter id="filter0_d_37_29" x="0" y="0" width="72" height="72" filterUnits="userSpaceOnUse" color-interpolation-filters="sRGB">
<feFlood flood-opacity="0" result="BackgroundImageFix"/>
<feColorMatrix in="SourceAlpha" type="matrix" values="0 0 0 0 0 0 0 0 0 0 0 0 0 0 0 0 0 0 127 0" result="hardAlpha"/>
<feOffset dx="-1" dy="-1"/>
<feGaussianBlur stdDeviation="2"/>
<feComposite in2="hardAlpha" operator="out"/>
<feColorMatrix type="matrix" values="0 0 0 0 0 0 0 0 0 0 0 0 0 0 0 0 0 0 0.25 0"/>
<feBlend mode="normal" in2="BackgroundImageFix" result="effect1_dropShadow_37_29"/>
<feBlend mode="normal" in="SourceGraphic" in2="effect1_dropShadow_37_29" result="shape"/>
</filter>
</defs>
</svg>
