<svg width="72" height="72" viewBox="0 0 72 72" fill="none" xmlns="http://www.w3.org/2000/svg">
<g filter="url(#filter0_d_37_46)">
<circle cx="37" cy="37" r="32" fill="#FFE498"/>
</g>
<path d="M31.0933 43.6166C31.3283 43.3826 31.4606 43.0648 31.4612 42.7331C31.4619 42.4015 31.3307 42.0832 31.0967 41.8483C30.8626 41.6133 30.5448 41.481 30.2132 41.4804C29.8816 41.4798 29.5633 41.6109 29.3283 41.8449L31.0933 43.6166ZM29.5333 32.3699C29.8118 32.5371 30.1445 32.5893 30.4608 32.5154C30.7771 32.4416 31.0522 32.2475 31.2279 31.9743C31.4036 31.7011 31.4661 31.3703 31.4021 31.0518C31.3381 30.7334 31.1526 30.4524 30.885 30.2683L29.5333 32.3699ZM33.8333 50.8333L32.95 51.7166C32.9693 51.7362 32.9894 51.7551 33.01 51.7733L33.8333 50.8333ZM42.7067 42.0533C42.6175 41.9154 42.502 41.7964 42.3668 41.7032C42.2317 41.6099 42.0795 41.5442 41.9189 41.5097C41.5946 41.4402 41.256 41.5023 40.9775 41.6824C40.699 41.8626 40.5035 42.1459 40.434 42.4702C40.3644 42.7945 40.4265 43.1331 40.6067 43.4116L42.7067 42.0533ZM34.705 51.5966L35.5883 50.7133L35.5583 50.6833L35.5283 50.6583L34.705 51.5966ZM45.94 36.6949L36.195 46.4099L37.9617 48.1799L47.705 38.4633L45.94 36.6949ZM28.805 46.4099L26.515 44.1266L24.75 45.8999L27.04 48.1833L28.805 46.4099ZM26.515 36.7699L36.2617 27.0533L34.495 25.2833L24.75 34.9999L26.515 36.7699ZM42.245 24.5833H43.1933V22.0833H42.2433L42.245 24.5833ZM48.4167 29.7883V30.7333H50.9167V29.7883H48.4167ZM43.1933 24.5833C44.7533 24.5833 45.8 24.5866 46.5783 24.6899C47.3217 24.7899 47.6333 24.9616 47.8367 25.1633L49.6017 23.3933C48.8567 22.6499 47.93 22.3499 46.91 22.2133C45.9267 22.0799 44.6833 22.0833 43.1933 22.0833V24.5833ZM50.9167 29.7883C50.9167 28.3016 50.92 27.0616 50.7867 26.0799C50.65 25.0616 50.3467 24.1366 49.6017 23.3933L47.8333 25.1633C48.0367 25.3649 48.2083 25.6749 48.3083 26.4133C48.4117 27.1899 48.4167 28.2299 48.4167 29.7883H50.9167ZM26.5167 44.1283C25.4117 43.0283 24.675 42.2883 24.1983 41.6649C23.7433 41.0716 23.6467 40.7316 23.6467 40.4483H21.1467C21.1467 41.5016 21.5883 42.3683 22.2133 43.1849C22.815 43.9716 23.6967 44.8466 24.75 45.8983L26.5167 44.1283ZM27.0383 48.1799C28.0917 49.2299 28.9717 50.1099 29.76 50.7099C30.5783 51.3333 31.4467 51.7716 32.5 51.7716V49.2716C32.2117 49.2716 31.87 49.1733 31.2733 48.7216C30.65 48.2449 29.9083 47.5099 28.805 46.4099L27.0383 48.1799ZM47.705 38.4633C49.0367 37.1383 49.9633 36.2433 50.4517 35.0699L48.1433 34.1116C47.8917 34.7183 47.415 35.2233 45.94 36.6949L47.705 38.4633ZM48.4167 30.7333C48.4167 32.8149 48.395 33.5049 48.1433 34.1116L50.4517 35.0699C50.9383 33.8966 50.9167 32.6099 50.9167 30.7333H48.4167ZM36.26 27.0549C37.735 25.5833 38.2433 25.1083 38.8517 24.8566L37.8983 22.5466C36.7233 23.0316 35.8267 23.9566 34.495 25.2833L36.26 27.0549ZM42.2433 22.0833C40.36 22.0833 39.0733 22.0616 37.8983 22.5466L38.8517 24.8566C39.4617 24.6066 40.1583 24.5833 42.245 24.5833L42.2433 22.0833ZM27.66 47.0383L31.0933 43.6166L29.3283 41.8449L25.895 45.2683L27.66 47.0383ZM30.885 30.2683L29.8367 29.5933L28.4833 31.6949L29.5333 32.3699L30.885 30.2683ZM29.8367 29.5933C28.8017 28.9266 27.965 28.3866 27.2467 27.9999C26.51 27.6033 25.8217 27.3216 25.06 27.2099L24.695 29.6833C25.0617 29.7366 25.4617 29.8783 26.06 30.1999C26.6733 30.5316 27.4167 31.0083 28.4833 31.6949L29.8367 29.5933ZM17.5917 34.2566C18.5222 33.3156 19.4724 32.3943 20.4417 31.4933C20.8332 31.1311 21.2391 30.7847 21.6583 30.4549C22.03 30.1683 22.2667 30.0283 22.3783 29.9816L21.42 27.6716C20.9917 27.8499 20.5417 28.1583 20.1317 28.4749C19.7017 28.8066 19.2317 29.2116 18.755 29.6466C17.8017 30.5166 16.755 31.5616 15.8267 32.4866L17.5917 34.2566ZM25.06 27.2099C23.8272 27.0317 22.5692 27.1912 21.42 27.6716L22.3783 29.9816C23.1092 29.6739 23.9099 29.5719 24.695 29.6833L25.06 27.2099ZM16.68 36.6216L17.3117 36.8716L18.2317 34.5483L17.6017 34.2983L16.68 36.6216ZM19.805 38.5066L21.405 40.1033L23.1717 38.3333L21.5733 36.7366L19.805 38.5066ZM17.3117 36.8716L17.5017 36.9483L18.4533 34.6366L18.2317 34.5483L17.3117 36.8716ZM21.57 36.7366C21.5143 36.6807 21.4582 36.6251 21.4017 36.5699L19.66 38.3633L19.805 38.5066L21.57 36.7366ZM17.5017 36.9483C18.305 37.2783 19.0367 37.7599 19.66 38.3649L21.4017 36.5699C20.5505 35.7443 19.5499 35.0881 18.4533 34.6366L17.5017 36.9483ZM15.8267 32.4866C15.5298 32.7822 15.3112 33.1471 15.1906 33.5483C15.0699 33.9495 15.0511 34.3744 15.1358 34.7847C15.2205 35.195 15.406 35.5778 15.6756 35.8985C15.9452 36.2192 16.2904 36.4677 16.68 36.6216L17.6017 34.2983C17.5975 34.2966 17.5936 34.2944 17.59 34.2916C17.59 34.2916 17.585 34.2866 17.585 34.2783V34.2666C17.585 34.2666 17.585 34.2633 17.5917 34.2566L15.8267 32.4866ZM40.6083 43.4116L41.285 44.4566L43.3833 43.0983L42.7067 42.0533L40.6083 43.4116ZM38.715 55.3066L38.575 55.4483L40.3417 57.2166L40.4817 57.0783L38.715 55.3066ZM41.285 44.4566C41.975 45.5233 42.4517 46.2616 42.785 46.8733C43.1067 47.4699 43.2483 47.8683 43.3017 48.2316L45.775 47.8649C45.6617 47.1033 45.3783 46.4149 44.9817 45.6816C44.5933 44.9649 44.0517 44.1316 43.3833 43.0983L41.285 44.4566ZM40.4817 57.0783C41.41 56.1516 42.4567 55.1066 43.33 54.1566C43.765 53.6816 44.1717 53.2133 44.505 52.7849C44.8217 52.3766 45.1317 51.9266 45.31 51.4983L43.0033 50.5366C42.8721 50.7924 42.7128 51.0328 42.5283 51.2533C42.198 51.6714 41.8511 52.0762 41.4883 52.4666C40.5839 53.4326 39.6593 54.3795 38.715 55.3066L40.4817 57.0783ZM43.3017 48.2316C43.415 48.9916 43.315 49.7883 43.0017 50.5366L45.31 51.4983C45.7934 50.351 45.9542 49.0969 45.775 47.8649L43.3017 48.2316ZM35.5283 50.6583L34.6567 49.8933L33.01 51.7733L33.88 52.5366L35.5283 50.6583ZM38.7433 55.4949C38.385 54.5966 38.17 54.0533 37.8867 53.5383L35.695 54.7383C35.8883 55.0883 36.0417 55.4683 36.42 56.4216L38.7433 55.4949ZM33.8217 52.4833C34.5483 53.2066 34.8383 53.4983 35.085 53.8133L37.0517 52.2699C36.69 51.8083 36.2733 51.3949 35.5867 50.7116L33.8217 52.4833ZM37.8883 53.5366C37.6444 53.0923 37.3646 52.6687 37.0517 52.2699L35.085 53.8133C35.3137 54.1041 35.5177 54.4136 35.695 54.7383L37.8883 53.5366ZM40.77 34.9999C40.3965 35.3715 39.891 35.5801 39.3642 35.5801C38.8373 35.5801 38.3319 35.3715 37.9583 34.9999L36.1933 36.7699C37.0355 37.6092 38.176 38.0804 39.365 38.0804C40.554 38.0804 41.6945 37.6092 42.5367 36.7699L40.77 34.9999ZM37.9583 34.9999C37.7741 34.8168 37.6278 34.5991 37.528 34.3593C37.4282 34.1194 37.3768 33.8622 37.3768 33.6024C37.3768 33.3427 37.4282 33.0855 37.528 32.8456C37.6278 32.6058 37.7741 32.388 37.9583 32.2049L36.1933 30.4349C35.7765 30.8502 35.4457 31.3437 35.2201 31.8872C34.9944 32.4306 34.8782 33.0132 34.8782 33.6016C34.8782 34.19 34.9944 34.7726 35.2201 35.3161C35.4457 35.8595 35.7765 36.353 36.1933 36.7683L37.9583 34.9999ZM37.9583 32.2049C38.3319 31.8328 38.8377 31.6239 39.365 31.6239C39.8923 31.6239 40.3981 31.8328 40.7717 32.2049L42.5367 30.4349C41.6945 29.5957 40.554 29.1245 39.365 29.1245C38.176 29.1245 37.0355 29.5957 36.1933 30.4349L37.9583 32.2049ZM40.7717 32.2049C40.956 32.388 41.1022 32.6058 41.202 32.8456C41.3018 33.0855 41.3532 33.3427 41.3532 33.6024C41.3532 33.8622 41.3018 34.1194 41.202 34.3593C41.1022 34.5991 40.9543 34.8168 40.77 34.9999L42.5367 36.7699C42.9535 36.3547 43.2843 35.8611 43.51 35.3177C43.7356 34.7743 43.8518 34.1917 43.8518 33.6033C43.8518 33.0149 43.7356 32.4322 43.51 31.8888C43.2843 31.3454 42.9535 30.8502 42.5367 30.4349L40.7717 32.2049ZM38.5733 55.4466C38.5865 55.4341 38.6025 55.4249 38.62 55.4199C38.6324 55.4161 38.6456 55.4156 38.6583 55.4183C38.6731 55.4216 38.6868 55.4285 38.6983 55.4383C38.7183 55.4549 38.7333 55.4749 38.7417 55.4949L36.4183 56.4199C37.0583 58.0249 39.1383 58.4133 40.3383 57.2166L38.5733 55.4466ZM36.195 46.4099C35.3433 47.2599 34.7 47.8983 34.1483 48.3733C33.5967 48.8516 33.2233 49.0833 32.9317 49.1916L33.795 51.5383C34.5083 51.2749 35.1517 50.8116 35.7833 50.2649C36.4167 49.7183 37.13 49.0066 37.9583 48.1816L36.195 46.4099ZM32.9317 49.1916C32.7933 49.2445 32.6481 49.2716 32.5 49.2716V51.7716C32.95 51.7716 33.3783 51.6916 33.795 51.5383L32.9317 49.1916ZM34.715 49.9499L34.2483 49.4816L32.4783 51.2483L32.9483 51.7166L34.715 49.9499ZM24.75 34.9999C23.9417 35.8066 23.2433 36.5016 22.7 37.1199C22.16 37.7366 21.6983 38.3616 21.4233 39.0466L23.7417 39.9799C23.86 39.6849 24.1033 39.3133 24.58 38.7683C25.055 38.2266 25.685 37.5983 26.515 36.7683L24.75 34.9999ZM21.4233 39.0466C21.2413 39.4915 21.1474 39.9676 21.1467 40.4483H23.6467C23.6467 40.2983 23.6733 40.1516 23.7417 39.9799L21.4233 39.0466ZM21.405 40.1033L21.6983 40.3966L23.465 38.6299L23.175 38.3333L21.405 40.1033Z" fill="black"/>
<defs>
<filter id="filter0_d_37_46" x="0" y="0" width="72" height="72" filterUnits="userSpaceOnUse" color-interpolation-filters="sRGB">
<feFlood flood-opacity="0" result="BackgroundImageFix"/>
<feColorMatrix in="SourceAlpha" type="matrix" values="0 0 0 0 0 0 0 0 0 0 0 0 0 0 0 0 0 0 127 0" result="hardAlpha"/>
<feOffset dx="-1" dy="-1"/>
<feGaussianBlur stdDeviation="2"/>
<feComposite in2="hardAlpha" operator="out"/>
<feColorMatrix type="matrix" values="0 0 0 0 0 0 0 0 0 0 0 0 0 0 0 0 0 0 0.25 0"/>
<feBlend mode="normal" in2="BackgroundImageFix" result="effect1_dropShadow_37_46"/>
<feBlend mode="normal" in="SourceGraphic" in2="effect1_dropShadow_37_46" result="shape"/>
</filter>
</defs>
</svg>
