<svg width="72" height="72" viewBox="0 0 72 72" fill="none" xmlns="http://www.w3.org/2000/svg">
<g filter="url(#filter0_d_36_16)">
<circle cx="37" cy="37" r="32" fill="#FFE498"/>
</g>
<path d="M33.6667 25.3333C33.6667 26.2174 34.0179 27.0652 34.643 27.6904C35.2681 28.3155 36.1159 28.6667 37 28.6667C37.8841 28.6667 38.7319 28.3155 39.357 27.6904C39.9821 27.0652 40.3333 26.2174 40.3333 25.3333C40.3333 24.4493 39.9821 23.6014 39.357 22.9763C38.7319 22.3512 37.8841 22 37 22C36.1159 22 35.2681 22.3512 34.643 22.9763C34.0179 23.6014 33.6667 24.4493 33.6667 25.3333ZM22 48.6667C22 49.5507 22.3512 50.3986 22.9763 51.0237C23.6014 51.6488 24.4493 52 25.3333 52C26.2174 52 27.0652 51.6488 27.6904 51.0237C28.3155 50.3986 28.6667 49.5507 28.6667 48.6667C28.6667 47.7826 28.3155 46.9348 27.6904 46.3096C27.0652 45.6845 26.2174 45.3333 25.3333 45.3333C24.4493 45.3333 23.6014 45.6845 22.9763 46.3096C22.3512 46.9348 22 47.7826 22 48.6667ZM45.3333 48.6667C45.3333 49.5507 45.6845 50.3986 46.3096 51.0237C46.9348 51.6488 47.7826 52 48.6667 52C49.5507 52 50.3986 51.6488 51.0237 51.0237C51.6488 50.3986 52 49.5507 52 48.6667C52 47.7826 51.6488 46.9348 51.0237 46.3096C50.3986 45.6845 49.5507 45.3333 48.6667 45.3333C47.7826 45.3333 46.9348 45.6845 46.3096 46.3096C45.6845 46.9348 45.3333 47.7826 45.3333 48.6667Z" stroke="black" stroke-width="3.33333" stroke-linecap="round" stroke-linejoin="round"/>
<path d="M27.8333 46.1667L37 38.6667M37 38.6667L46.1667 46.1667M37 38.6667V28.6667" stroke="black" stroke-width="3.33333" stroke-linecap="round" stroke-linejoin="round"/>
<defs>
<filter id="filter0_d_36_16" x="0" y="0" width="72" height="72" filterUnits="userSpaceOnUse" color-interpolation-filters="sRGB">
<feFlood flood-opacity="0" result="BackgroundImageFix"/>
<feColorMatrix in="SourceAlpha" type="matrix" values="0 0 0 0 0 0 0 0 0 0 0 0 0 0 0 0 0 0 127 0" result="hardAlpha"/>
<feOffset dx="-1" dy="-1"/>
<feGaussianBlur stdDeviation="2"/>
<feComposite in2="hardAlpha" operator="out"/>
<feColorMatrix type="matrix" values="0 0 0 0 0 0 0 0 0 0 0 0 0 0 0 0 0 0 0.25 0"/>
<feBlend mode="normal" in2="BackgroundImageFix" result="effect1_dropShadow_36_16"/>
<feBlend mode="normal" in="SourceGraphic" in2="effect1_dropShadow_36_16" result="shape"/>
</filter>
</defs>
</svg>
